HIERARCHY
ROOT Pelvis
{
	OFFSET 0.000000 0.000000 0.000000
	CHANNELS 6 Xposition Yposition Zposition Xrotation Yrotation Zrotation
	JOINT LeftUpLeg_virtual
	{
		OFFSET 0.000000 0.000000 0.000000
		CHANNELS 3 Xrotation Yrotation Zrotation
		JOINT LeftUpLeg
		{
			OFFSET 18.735201 -5.666702 -4.541200
			CHANNELS 3 Xrotation Yrotation Zrotation
			JOINT LeftLeg
			{
				OFFSET -0.021200 -31.938179 0.493100
				CHANNELS 3 Xrotation Yrotation Zrotation
				JOINT LeftFoot
				{
					OFFSET 0.021200 -31.938179 -4.336299
					CHANNELS 3 Xrotation Yrotation Zrotation
					JOINT LeftToeBase
					{
						OFFSET 0.943001 -26.722000 15.023500
						CHANNELS 3 Xrotation Yrotation Zrotation
						End Site
						{
							OFFSET 0 0 0
						}
					}
				}
			}
		}
	}
	JOINT RightUpLeg_virtual
	{
		OFFSET 0.000000 0.000000 0.000000
		CHANNELS 3 Xrotation Yrotation Zrotation
		JOINT RightUpLeg
		{
			OFFSET -18.735201 -5.666702 -4.541200
			CHANNELS 3 Xrotation Yrotation Zrotation
			JOINT RightLeg
			{
				OFFSET 0.018946 -31.938133 0.493100
				CHANNELS 3 Xrotation Yrotation Zrotation
				JOINT RightFoot
				{
					OFFSET -0.018946 -31.938126 -4.336299
					CHANNELS 3 Xrotation Yrotation Zrotation
					JOINT RightToeBase
					{
						OFFSET -0.943001 -26.722004 15.023500
						CHANNELS 3 Xrotation Yrotation Zrotation
						End Site
						{
							OFFSET 0 0 0
						}
					}
				}
			}
		}
	}
	JOINT Hips_virtual
	{
		OFFSET 0.000000 0.000000 0.000000
		CHANNELS 3 Xrotation Yrotation Zrotation
		JOINT Hips
		{
			OFFSET -0.000000 -0.000000 -0.000000
			CHANNELS 3 Xrotation Yrotation Zrotation
			JOINT Spine
			{
				OFFSET 0.000000 10.199997 -0.299500
				CHANNELS 3 Xrotation Yrotation Zrotation
				JOINT Spine1
				{
					OFFSET 0.000000 11.900002 -1.516600
					CHANNELS 3 Xrotation Yrotation Zrotation
					JOINT Spine2
					{
						OFFSET 0.000000 13.600006 -2.842500
						CHANNELS 3 Xrotation Yrotation Zrotation
						JOINT Neck_virtual
						{
							OFFSET 0.000000 0.000000 0.000000
							CHANNELS 3 Xrotation Yrotation Zrotation
							JOINT Neck
							{
								OFFSET 0.000000 9.624100 -2.890100
								CHANNELS 3 Xrotation Yrotation Zrotation
								JOINT Head
								{
									OFFSET 0.000000 14.068802 -1.351900
									CHANNELS 3 Xrotation Yrotation Zrotation
									End Site
									{
										OFFSET 0 0 0
									}
								}
							}
						}
						JOINT LeftShoulder_virtual
						{
							OFFSET 0.000000 0.000000 0.000000
							CHANNELS 3 Xrotation Yrotation Zrotation
							JOINT LeftShoulder
							{
								OFFSET 15.263000 10.923401 -0.547700
								CHANNELS 3 Xrotation Yrotation Zrotation
								JOINT LeftArm
								{
									OFFSET 25.438599 -2.830597 -13.032500
									CHANNELS 3 Xrotation Yrotation Zrotation
									JOINT LeftForeArm
									{
										OFFSET 29.960503 0.000000 0.000000
										CHANNELS 3 Xrotation Yrotation Zrotation
										JOINT LeftHand
										{
											OFFSET 27.849251 0.000000 0.000000
											CHANNELS 3 Xrotation Yrotation Zrotation
											End Site
											{
												OFFSET 0 0 0
											}
										}
									}
								}
							}
						}
						JOINT RightShoulder_virtual
						{
							OFFSET 0.000000 0.000000 0.000000
							CHANNELS 3 Xrotation Yrotation Zrotation
							JOINT RightShoulder
							{
								OFFSET -15.263000 10.923401 -0.547700
								CHANNELS 3 Xrotation Yrotation Zrotation
								JOINT RightArm
								{
									OFFSET -25.438599 -2.830597 -13.032500
									CHANNELS 3 Xrotation Yrotation Zrotation
									JOINT RightForeArm
									{
										OFFSET -29.960503 0.000000 0.000000
										CHANNELS 3 Xrotation Yrotation Zrotation
										JOINT RightHand
										{
											OFFSET -27.849251 0.000000 0.000000
											CHANNELS 3 Xrotation Yrotation Zrotation
											End Site
											{
												OFFSET 0 0 0
											}
										}
									}
								}
							}
						}
					}
				}
			}
		}
	}
}
MOTION
Frames: 11
Frame Time: 0.03333333
-17.517845 44.081356 75.908035 0.000000 0.000000 0.000000 16.388969 -30.524477 -1.745034 5.806556 12.582339 19.927075 78.937289 -27.951776 -18.987646 21.984950 -3.887943 18.045047 0.000000 0.000000 0.000000 15.630985 -28.845859 -2.205817 2.056519 18.302831 -21.203795 56.532595 2.613829 1.784324 65.423001 32.584712 36.021595 0.000000 0.000000 0.000000 14.574828 -26.433406 -2.055305 -0.780945 -0.161101 -0.107016 15.123733 -1.632553 1.415521 -0.087074 -7.398286 5.102998 0.000000 0.000000 0.000000 -4.873284 -2.593717 4.402511 -5.052481 -1.527823 1.278792 0.000000 0.000000 0.000000 1.369578 -4.962193 5.650740 -26.916218 -3.424539 -14.648182 0.251584 13.908103 -57.919369 49.998737 -44.057452 19.365033 0.000000 0.000000 0.000000 -9.260749 -0.791110 3.807459 -20.295101 15.882090 9.227830 7.144285 -7.198984 80.593999 6.527571 35.419725 -9.768390 0.000000 0.000000 0.000000 
-16.261135 43.907799 78.959541 0.000000 0.000000 0.000000 17.639107 -31.639082 -1.862470 8.598484 12.177630 16.902770 74.885579 -24.874028 -19.034025 22.621196 -2.525413 18.086903 0.000000 0.000000 0.000000 17.159477 -30.016223 -2.388560 1.723155 18.004385 -22.876146 55.409356 5.350383 2.120415 64.615345 34.818617 36.376905 0.000000 0.000000 0.000000 15.979093 -27.846510 -2.250871 -0.761462 -0.193921 -0.101350 14.974348 -0.742623 2.276091 -0.341391 -8.366310 5.507947 0.000000 0.000000 0.000000 -4.891200 -3.355393 4.610449 -4.537463 -1.178745 1.195608 0.000000 0.000000 0.000000 1.532594 -5.798354 5.710444 -26.723972 -3.883791 -14.191496 0.737956 18.450035 -55.260964 54.174284 -47.036251 20.490844 0.000000 0.000000 0.000000 -9.366138 -1.571483 4.097705 -18.940420 14.864308 6.797675 5.695793 -3.537353 84.375178 8.009018 37.937934 -12.656377 0.000000 0.000000 0.000000 
-14.954248 43.549850 81.676216 0.000000 0.000000 0.000000 18.751962 -31.939450 -2.359044 9.937925 12.435079 14.504779 71.675172 -22.113883 -18.589159 25.715042 -2.006686 16.440716 0.000000 0.000000 0.000000 18.529390 -30.465280 -2.856161 1.530914 16.430105 -24.069979 54.476452 7.659669 3.074318 65.804296 36.197489 35.041650 0.000000 0.000000 0.000000 17.303625 -28.554801 -2.674270 -0.737268 -0.211629 -0.097089 14.573390 -0.115008 3.147971 -0.478734 -9.129206 6.016452 0.000000 0.000000 0.000000 -4.696077 -3.865962 4.798959 -4.067327 -0.885085 1.000678 0.000000 0.000000 0.000000 1.882020 -6.365700 5.837720 -26.584327 -4.980080 -13.249477 1.670385 20.341770 -53.323953 55.762378 -49.544854 19.707519 0.000000 0.000000 0.000000 -9.236883 -2.112517 4.421628 -18.201834 13.708638 5.539943 5.686901 0.545120 86.181537 9.682880 42.099391 -15.398699 0.000000 0.000000 0.000000 
-13.562563 42.958580 84.411438 0.000000 0.000000 0.000000 20.093238 -31.448103 -2.969674 10.388883 12.836637 12.569000 68.888175 -19.778428 -17.574598 28.957000 -2.822230 13.644676 0.000000 0.000000 0.000000 19.906791 -30.091546 -3.421646 1.769870 14.373254 -24.702363 53.684023 9.065318 4.126993 67.783084 36.194477 32.640241 0.000000 0.000000 0.000000 18.770977 -28.484590 -3.151261 -0.720035 -0.211925 -0.107653 13.963149 0.233869 4.005881 -0.518601 -9.644080 6.544913 0.000000 0.000000 0.000000 -4.391768 -4.117247 4.911480 -3.611013 -0.643647 0.673551 0.000000 0.000000 0.000000 2.330430 -6.623226 6.016374 -26.537759 -6.494961 -12.044421 2.839719 20.031249 -52.169429 54.356790 -51.104739 16.644170 0.000000 0.000000 0.000000 -8.883028 -2.404455 4.728604 -18.111411 12.762022 5.421134 7.483290 4.380885 85.001021 11.374479 47.215056 -17.609947 0.000000 0.000000 0.000000 
-12.178684 42.265385 87.141937 0.000000 0.000000 0.000000 22.035946 -30.468197 -3.403978 10.946076 12.334873 10.715445 65.311519 -17.877909 -15.834383 29.160106 -5.408339 10.526892 0.000000 0.000000 0.000000 21.613403 -29.055365 -3.865577 2.522460 12.728299 -24.693166 52.833470 9.750983 4.592722 69.419741 35.335997 30.188354 0.000000 0.000000 0.000000 20.550219 -27.748960 -3.519326 -0.721364 -0.183988 -0.114841 13.057840 0.329893 4.868166 -0.375942 -9.927546 6.982784 0.000000 0.000000 0.000000 -4.084160 -4.147522 4.895577 -3.148156 -0.463631 0.226193 0.000000 0.000000 0.000000 2.783472 -6.626009 6.143329 -26.644460 -8.167866 -10.764520 4.221177 18.283197 -51.441901 50.965611 -52.089584 12.353069 0.000000 0.000000 0.000000 -8.381904 -2.459750 4.907119 -18.577201 12.021059 5.995316 11.031963 7.486239 80.704730 12.559396 52.729849 -18.869931 0.000000 0.000000 0.000000 
-10.733867 41.470432 89.848289 0.000000 0.000000 0.000000 24.681785 -29.137338 -3.564295 11.891040 10.714115 8.863907 60.638310 -16.358727 -13.420290 26.975651 -8.732490 7.601346 0.000000 0.000000 0.000000 23.863636 -27.597026 -4.176724 3.516321 11.792664 -24.252108 51.970865 10.150051 4.491231 69.826048 34.521962 28.633017 0.000000 0.000000 0.000000 22.713287 -26.481046 -3.778781 -0.733598 -0.139747 -0.115907 11.813405 0.197981 5.674906 0.007089 -10.020664 7.244274 0.000000 0.000000 0.000000 -3.755569 -4.016385 4.702720 -2.682418 -0.331879 -0.296284 0.000000 0.000000 0.000000 3.205808 -6.478649 6.088275 -26.945252 -9.882768 -9.686055 5.944842 16.038177 -50.684378 47.022816 -53.225608 8.248304 0.000000 0.000000 0.000000 -7.727758 -2.335628 4.923348 -19.467038 11.279183 6.793153 15.953684 9.332891 74.471991 13.083079 58.642563 -19.080448 0.000000 0.000000 0.000000 
-9.366987 40.393314 93.033836 0.000000 0.000000 0.000000 27.885275 -27.542968 -3.511282 12.683012 8.922426 7.237025 56.098731 -14.892266 -10.774771 24.554351 -11.323923 5.625757 0.000000 0.000000 0.000000 26.726896 -25.852334 -4.403089 4.322971 11.338774 -23.604200 51.540471 10.572146 4.114715 69.735145 34.389265 27.844622 0.000000 0.000000 0.000000 25.443452 -24.937499 -3.876710 -0.750225 -0.106079 -0.136976 10.306049 -0.146883 6.269227 0.645495 -10.031618 7.332106 0.000000 0.000000 0.000000 -3.237165 -3.825609 4.391196 -2.242993 -0.250877 -0.794717 0.000000 0.000000 0.000000 3.560484 -6.309014 5.807752 -27.428699 -11.403053 -8.940491 8.350531 14.065197 -49.713931 43.631983 -55.464497 5.388805 0.000000 0.000000 0.000000 -7.005381 -2.141438 4.816973 -20.514559 10.422391 7.454856 21.405524 9.764184 68.390527 12.738629 64.612852 -18.226706 0.000000 0.000000 0.000000 
-8.136028 38.847038 96.356689 0.000000 0.000000 0.000000 31.456785 -25.630553 -3.398328 12.504737 7.530103 6.120734 52.857543 -13.449835 -8.229737 21.961852 -13.018074 4.928411 0.000000 0.000000 0.000000 30.239870 -23.943001 -4.503918 4.645125 11.103144 -22.827512 52.106072 11.024095 3.584532 70.109331 34.684042 26.992477 0.000000 0.000000 0.000000 28.748980 -23.266717 -3.788332 -0.763570 -0.073616 -0.147634 8.591473 -0.698433 6.543271 1.496841 -10.048436 7.330022 0.000000 0.000000 0.000000 -2.517854 -3.652833 4.071136 -1.891210 -0.190875 -1.186706 0.000000 0.000000 0.000000 3.872119 -6.216390 5.338832 -28.055499 -12.587287 -8.575748 11.429581 12.626803 -48.494551 41.483929 -59.435166 4.286709 0.000000 0.000000 0.000000 -6.335293 -1.940030 4.680643 -21.542929 9.464348 7.677272 26.499269 9.073231 63.937927 11.096137 70.596125 -16.003062 0.000000 0.000000 0.000000 
-7.037393 36.729534 99.759583 0.000000 0.000000 0.000000 35.320636 -23.415280 -3.215283 11.184099 6.516654 5.696821 50.919176 -12.603785 -5.861752 19.247270 -14.393652 4.899392 0.000000 0.000000 0.000000 34.395450 -21.917047 -4.431857 4.845364 11.004881 -22.015180 52.819434 11.198334 3.111033 70.691679 34.718798 25.680348 0.000000 0.000000 0.000000 32.650930 -21.524687 -3.447249 -0.764313 -0.064915 -0.142626 6.856316 -1.384572 6.396402 2.416075 -10.150310 7.356661 0.000000 0.000000 0.000000 -1.678512 -3.570127 3.827788 -1.732765 -0.138121 -1.398882 0.000000 0.000000 0.000000 4.210697 -6.230425 4.799001 -28.704652 -13.330386 -8.591198 15.148793 11.604908 -47.021758 41.297397 -65.062873 5.360627 0.000000 0.000000 0.000000 -5.826440 -1.806748 4.624748 -22.415689 8.729176 7.412839 31.660724 7.185344 61.153183 7.024504 76.363352 -11.108282 0.000000 0.000000 0.000000 
-6.180610 34.114506 103.315857 0.000000 0.000000 0.000000 39.730141 -21.019491 -2.827318 9.719139 5.861463 5.893675 48.731658 -12.747823 -3.858215 16.146605 -16.275098 4.344657 0.000000 0.000000 0.000000 39.183894 -19.801878 -4.083971 5.203417 11.212698 -21.381086 53.290929 10.947214 2.600584 70.982440 34.370489 24.050471 0.000000 0.000000 0.000000 37.114326 -19.638659 -2.879153 -0.754269 -0.082964 -0.120425 5.252307 -2.094627 5.829254 3.260855 -10.366227 7.458062 0.000000 0.000000 0.000000 -0.918729 -3.573954 3.749770 -1.834196 -0.052199 -1.401553 0.000000 0.000000 0.000000 4.555161 -6.348702 4.314128 -29.247519 -13.569058 -8.832969 19.229542 10.843076 -45.500097 44.258113 -71.597840 9.501328 0.000000 0.000000 0.000000 -5.513213 -1.752231 4.660864 -23.010721 8.550821 6.786072 37.255711 3.865785 59.165742 -3.969256 81.531791 1.145450 0.000000 0.000000 0.000000 
-5.570281 31.344738 106.934113 0.000000 0.000000 0.000000 44.921505 -18.609311 -2.157879 9.071129 5.771714 6.470918 43.828634 -13.766020 -2.627583 12.814174 -19.232985 2.085455 0.000000 0.000000 0.000000 44.562026 -17.663725 -3.405003 5.305209 11.675411 -21.197272 53.702731 10.237851 1.970458 70.816795 34.037913 22.434745 0.000000 0.000000 0.000000 42.144282 -17.633356 -2.085535 -0.741780 -0.109127 -0.072170 3.898413 -2.706586 4.995810 3.882254 -10.633209 7.587251 0.000000 0.000000 0.000000 -0.499066 -3.585296 3.750192 -2.215544 0.100535 -1.207559 0.000000 0.000000 0.000000 4.850269 -6.473500 3.921278 -29.574890 -13.322793 -9.195817 23.455134 10.129450 -44.018800 54.179028 -77.987592 20.239913 0.000000 0.000000 0.000000 -5.273414 -1.717724 4.727836 -23.373942 9.047041 5.851003 43.185394 -1.005092 57.136872 -34.498842 84.766213 33.532015 0.000000 0.000000 0.000000 
